<?xml version="1.0" encoding="UTF-8"?>
<svg width="1e3" height="1e3" version="1.1" xmlns="http://www.w3.org/2000/svg" xmlns:xlink="http://www.w3.org/1999/xlink">
	<defs>
		<filter id="g" x="-.3" y="-.3" width="1.6" height="1.6" color-interpolation-filters="sRGB">
			<feGaussianBlur stdDeviation="5"/>
		</filter>
		<radialGradient id="o" cx="-228" cy="236" r="25" gradientTransform="matrix(1.76,0,0,1.76,448,492)" gradientUnits="userSpaceOnUse">
			<stop stop-color="#fff" offset="0"/>
			<stop offset="1"/>
		</radialGradient>
		<radialGradient id="m" cx="-228" cy="236" r="25" gradientTransform="matrix(1.76,0,0,1.76,448,429)" gradientUnits="userSpaceOnUse">
			<stop stop-color="#fff" offset="0"/>
			<stop stop-color="#e00000" offset="1"/>
		</radialGradient>
		<radialGradient id="j" cx="-228" cy="236" r="25" gradientTransform="matrix(.915 0 0 .915 259 750)" gradientUnits="userSpaceOnUse">
			<stop stop-color="#fff" offset="0"/>
			<stop stop-color="#b3b3b3" offset="1"/>
		</radialGradient>
		<marker id="i" overflow="visible" orient="auto">
			<path transform="scale(-.6)" d="m8.72 4.03-10.9-4.02 10.9-4.02c-1.75 2.37-1.74 5.62 0 8.04z" stroke="#000"/>
		</marker>
	</defs>
	<use transform="translate(0,308)" xlink:href="#d"/>
	<use transform="translate(-335,394)" xlink:href="#d"/>
	<use transform="translate(-681,308)" xlink:href="#d"/>
	<use transform="translate(-681)" xlink:href="#d"/>
	<g id="d" transform="translate(476 -144)">
		<use transform="translate(-140 230)" xlink:href="#f"/>
		<use transform="translate(280 -547)" xlink:href="#b"/>
		<use transform="matrix(1.03 0 0 1.12 338 -633)" stroke-width=".932" xlink:href="#b"/>
		<use transform="translate(274 -455)" xlink:href="#a"/>
		<use transform="translate(308 -495)" xlink:href="#a"/>
		<use transform="translate(305 -489)" xlink:href="#b"/>
	</g>
	<g id="f" transform="translate(0 -234)">
		<use transform="translate(493 -475)" xlink:href="#a"/>
		<use transform="translate(398 -516)" xlink:href="#b"/>
		<use transform="translate(413 -417)" xlink:href="#a"/>
		<use transform="translate(458 -410)" xlink:href="#a"/>
		<use transform="translate(492 -495)" xlink:href="#b"/>
		<use transform="translate(458 -564)" xlink:href="#b"/>
		<use transform="translate(415 -495)" xlink:href="#a"/>
	</g>
	<use transform="translate(187,793)" xlink:href="#c"/>
	<use transform="translate(859,600)" xlink:href="#n"/>
	<use transform="translate(106,-687)" xlink:href="#b"/>
	<use transform="translate(121,-594)" xlink:href="#a"/>
	<use transform="translate(90.2,-658)" xlink:href="#b"/>
	<use transform="translate(116,-286)" xlink:href="#a"/>
	<use transform="translate(87.6,-352)" xlink:href="#b"/>
	<use transform="translate(111,-310)" xlink:href="#a"/>
	<circle id="a" cx="54.8" cy="851" r="25" fill="url(#m)"/>
	<circle id="b" cx="54.8" cy="914" r="25" fill="url(#o)"/>
	<use transform="translate(418,-764)" xlink:href="#b"/>
	<use transform="translate(468,-720)" xlink:href="#a"/>
	<use transform="translate(433,-729)" xlink:href="#b"/>
	<use transform="translate(475,-747)" xlink:href="#b"/>
	<use transform="translate(439,-699)" xlink:href="#a"/>
	<use transform="translate(772,-361)" xlink:href="#b"/>
	<use transform="translate(783,-605)" xlink:href="#a"/>
	<g transform="translate(-2.23,-8.18)">
		<g id="w" transform="translate(-50.5,50)">
			<use transform="translate(397,-901)" xlink:href="#b"/>
			<use transform="translate(372,-852)" xlink:href="#a"/>
		</g>
		<use transform="translate(-5.26,21)" xlink:href="#w"/>
	</g>
	<use transform="translate(157,-603)" xlink:href="#h"/>
	<circle id="h" cx="54.8" cy="969" r="13" fill="url(#j)"/>
	<use transform="translate(799,67.7)" xlink:href="#n"/>
	<g transform="translate(-2.06,-3.57)">
		<text id="e" font-size="40"><tspan x="629" y="71" font-family="DejaVu Sans"><tspan baseline-shift="super" font-size="50%">1</tspan>H</tspan></text>
		<use transform="translate(556,-779)" xlink:href="#a"/>
	</g>
	<use transform="translate(-551,560)" xlink:href="#c"/>
	<g transform="translate(26.8,180)">
		<use transform="translate(125,-920)" xlink:href="#a"/>
		<use transform="translate(-518,-141)" xlink:href="#e"/>
	</g>
	<g id="u" transform="translate(267,-31.7)">
		<use transform="translate(69.3,-82)" xlink:href="#a"/>
		<use transform="translate(-574,723)" xlink:href="#e"/>
	</g>
	<use transform="translate(398,-46.6)" xlink:href="#u"/>
	<use transform="translate(-159,608)" xlink:href="#c"/>
	<g id="y">
		<path id="p" d="m139 407-26.8-26.8" marker-end="url(#i)" stroke="#000" stroke-linecap="round" stroke-width="2"/>
		<g id="v" transform="translate(344,286)">
			<circle cx="-190" cy="138" r="17" fill="#f99" filter="url(#g)"/>
			<path d="m-181 160-9-17-9 17 6-19-19 6 17-9-17-9 19 6-6-19 9 17 9-17-6 19 19-6-17 9 17 9-19-6z" fill="#f2f200" stroke="#c7c700" stroke-width=".5"/>
		</g>
		<path d="m154 400v-69" marker-end="url(#i)" stroke="#000" stroke-linecap="round" stroke-width="3"/>
		<path d="m154 478v-27.7" marker-end="url(#i)" stroke="#000" stroke-linecap="round" stroke-width="3"/>
		<use transform="matrix(-1 0 0 1 309 -.429)" xlink:href="#p"/>
		<g id="z">
			<use transform="rotate(-30,-223,-9.01)" xlink:href="#v"/>
			<g stroke="#000" stroke-linecap="round">
				<path d="m230 216 65.5-28.3" marker-end="url(#i)" stroke-width="3"/>
				<path d="m344 174 75.2-10.1" marker-end="url(#i)" stroke-width="3"/>
				<path d="m236 129 61.7 35.7" marker-end="url(#i)" stroke-width="2"/>
				<path d="m332 156 35.8-62.3" marker-end="url(#i)" stroke-width="2"/>
			</g>
		</g>
		<use transform="rotate(210 382 401)" xlink:href="#z"/>
	</g>
	<use transform="rotate(180,498,402)" xlink:href="#y"/>
	<use transform="translate(729,-532)" xlink:href="#h"/>
	<use transform="translate(432,-275)" xlink:href="#b"/>
	<use transform="translate(454,-208)" xlink:href="#a"/>
	<g font-family="DejaVu Sans" font-size="40">
		<text><tspan x="230" y="309"><tspan baseline-shift="super" font-size="50%">15</tspan>N</tspan></text>
		<text><tspan x="398" y="576"><tspan baseline-shift="super" font-size="50%">14</tspan>N</tspan></text>
		<text><tspan x="217" y="526"><tspan baseline-shift="super" font-size="50%">15</tspan>O</tspan></text>
		<text><tspan x="545" y="250"><tspan baseline-shift="super" font-size="50%">12</tspan>C</tspan></text>
		<text><tspan x="716" y="527"><tspan baseline-shift="super" font-size="50%">13</tspan>C</tspan></text>
		<text><tspan x="712" y="300"><tspan baseline-shift="super" font-size="50%">13</tspan>N</tspan></text>
		<text><tspan x="272" y="50"><tspan baseline-shift="super" font-size="50%">4</tspan>He</tspan></text>
	</g>
	<text id="c" x="763" y="126" font-family="FreeSerif" font-size="40">γ</text>
	<text id="n" x="91" y="379" font-family="FreeSerif" font-size="40">ν</text>
	<g font-family="DejaVu Sans" font-size="30">
		<switch transform="translate(95 862)">
			<text systemLanguage="ca">Protó</text>
			<text systemLanguage="af, de, en, fr, no, sv">Proton</text>
			<text systemLanguage="el">Πρωτόνιο</text>
			<text systemLanguage="es">Protón</text>
			<text systemLanguage="fa">پروتون</text>
			<text systemLanguage="hu">proton</text>
			<text systemLanguage="it">Protone</text>
			<text systemLanguage="ja">陽子</text>
			<text systemLanguage="mk, ru, uk">Протон</text>
			<text systemLanguage="tr">Önelcik</text>
			<text systemLanguage="zh">質子</text>
			<text>Proton</text>
		</switch>
		<switch transform="translate(95 925)">
			<text systemLanguage="ca">Neutró</text>
			<text systemLanguage="af, de, en, fr, sv">Neutron</text>
			<text systemLanguage="el">Νετρόνιο</text>
			<text systemLanguage="es">Neutrón</text>
			<text systemLanguage="fa">نوترون</text>
			<text systemLanguage="hu">neutron</text>
			<text systemLanguage="it">Neutrone</text>
			<text systemLanguage="ja">中性子</text>
			<text systemLanguage="mk">Неутрон</text>
			<text systemLanguage="no">Nøytron</text>
			<text systemLanguage="ru, uk">Нейтрон</text>
			<text systemLanguage="tr">Ilıncık</text>
			<text systemLanguage="zh">中子</text>
			<text>Neutron</text>
		</switch>
		<switch transform="translate(95 980)">
			<text systemLanguage="ca">Positró</text>
			<text systemLanguage="af, de, en, fr, no, sv">Positron</text>
			<text systemLanguage="el">Ποζιτρόνιο</text>
			<text systemLanguage="es">Positrón</text>
			<text systemLanguage="fa">پوزیترون</text>
			<text systemLanguage="hu">pozitron</text>
			<text systemLanguage="it">Positrone</text>
			<text systemLanguage="ja">陽電子</text>
			<text systemLanguage="mk, ru, uk">Позитрон</text>
			<text systemLanguage="tr">Artıcık</text>
			<text systemLanguage="zh">正電子</text>
			<text>Positron</text>
		</switch>
		<switch transform="translate(938 922)" text-anchor="end">
			<text systemLanguage="af">gammastraal</text>
			<text systemLanguage="ca">Raig gamma</text>
			<text systemLanguage="de">Gammastrahlung</text>
			<text systemLanguage="en">Gamma ray</text>
			<text systemLanguage="el">Ακτίνες γάμμα</text>
			<text systemLanguage="es">Rayos Gamma</text>
			<text systemLanguage="fa">پرتو گاما</text>
			<text systemLanguage="fr">Rayon gamma</text>
			<text systemLanguage="hu">foton</text>
			<text systemLanguage="it">Raggio Gamma</text>
			<text systemLanguage="ja">ガンマ線</text>
			<text systemLanguage="mk">Гама-зрачење</text>
			<text systemLanguage="no">Gammastråling</text>
			<text systemLanguage="ru">Гамма-квант</text>
			<text systemLanguage="sv">Gammafoton</text>
			<text systemLanguage="tr">Gama Işını</text>
			<text systemLanguage="uk">Гамма-промені</text>
			<text systemLanguage="zh">伽马射线</text>
			<text>Gamma ray</text>
		</switch>
		<switch transform="translate(938 980)" text-anchor="end">
			<text systemLanguage="ca">Neutrí</text>
			<text systemLanguage="af, de, en, es, fr, it, sv">Neutrino</text>
			<text systemLanguage="fa">نوترینو</text>
			<text systemLanguage="el">Νετρίνο</text>
			<text systemLanguage="hu">neutrínó</text>
			<text systemLanguage="ja">ニュートリノ</text>
			<text systemLanguage="mk">Неутрино</text>
			<text systemLanguage="no">Nøytrino</text>
			<text systemLanguage="ru, uk">Нейтрино</text>
			<text systemLanguage="tr">Nötrino</text>
			<text systemLanguage="zh">微中子</text>
			<text>Neutrino</text>
		</switch>
	</g>
</svg>